SPORT: Jour De Rugby
On: TV5MONDE 
Date: Sunday 24th February 2013 
Time: 11:05 to 11:45 

R┬éesume┬é des matchs et commentaires apr┬ées chaque journ┬ée du Top 14. 
Completely in French, a run down of the weekend's French Top 14 rugby.


General
Complete name: 2013.02.24.Jour.De.Rugby.pdtv.x264.mp4
Format : MPEG-4
Format profile : Base Media
Codec ID : isom
File size: 364 MiB
Duration : 39mn 2s
Overall bit rate mode: Variable
Overall bit rate : 1 302 Kbps

Video
ID : 1
Format : AVC
Format/Info: Advanced Video Codec
Format profile : High@L3.1
Format settings, CABAC : Yes
Format settings, ReFrames: 4 frames
Codec ID : avc1
Codec ID/Info: Advanced Video Coding
Duration : 39mn 1s
Bit rate : 1 170 Kbps
Maximum bit rate : 3 849 Kbps
Width: 720 pixels
Height : 416 pixels
Display aspect ratio : 1.731
Frame rate mode: Constant
Frame rate : 25.000 fps
Color space: YUV
Chroma subsampling : 4:2:0
Bit depth: 8 bits
Scan type: Progressive
Bits/(Pixel*Frame) : 0.156
Stream size: 327 MiB (90%)
Writing library: x264 core 129 r2245 bc13772

Audio
ID : 2
Format : AAC
Format/Info: Advanced Audio Codec
Format profile : LC
Codec ID : 40
Duration : 39mn 2s
Bit rate mode: Variable
Bit rate : 128 Kbps
Maximum bit rate : 143 Kbps
Channel(s) : 2 channels
Channel positions: Front: L R
Sampling rate: 48.0 KHz
Compression mode : Lossy
Delay relative to video: 80ms
Stream size: 35.7 MiB (10%)
Language : English

